w1b1r100.ufo
<glyph name="_101" format="2">
  <advance width="1"/>
  <unicode hex="0165"/>
  
  <outline>
    <component base="cap" xOffset="0" yOffset="0" />
    <component base="cap" xOffset="0" yOffset="1009" />
    <contour>
      <point x="0" y="1" type="line"/>
      <point x="0" y="1010" type="line"/>
      <point x="1" y="1010" type="line"/>
      <point x="1" y="1" type="line"/>
    </contour>
  </outline>
</glyph>
<glyph name="_36.center" format="2">
  <advance width="1"/>
  <unicode hex="0424"/>
  
  <outline>
    <component base="cap" xOffset="0" yOffset="320" />
    <component base="cap" xOffset="0" yOffset="679" />
    <contour>
      <point x="0" y="321" type="line"/>
      <point x="0" y="680" type="line"/>
      <point x="1" y="680" type="line"/>
      <point x="1" y="321" type="line"/>
    </contour>
  </outline>
</glyph>
<glyph name="_97.center" format="2">
  <advance width="1"/>
  <unicode hex="0461"/>
  
  <outline>
    <component base="cap" xOffset="0" yOffset="15" />
    <component base="cap" xOffset="0" yOffset="984" />
    <contour>
      <point x="0" y="16" type="line"/>
      <point x="0" y="985" type="line"/>
      <point x="1" y="985" type="line"/>
      <point x="1" y="16" type="line"/>
    </contour>
  </outline>
</glyph>
<glyph name="_10.clip" format="2">
  <advance width="1"/>
  
  <outline>
    <contour>
        <point x="0.000" y="77.500"/>

        <point x="22.500" y="100.000"/>
        <point x="50.000" y="100.000" type="curve" smooth="yes"/>
        <point x="-49.000" y="100.000" type="line"/>
        <point x="-21.500" y="100.000"/>

        <point x="1.000" y="77.500"/>
        <point x="1.000" y="50.000" type="curve" smooth="yes"/>
        <point x="1.000" y="50.000" type="line"/>
        <point x="1.000" y="22.500"/>

        <point x="-21.500" y="0.000"/>
        <point x="-49.000" y="0.000" type="curve" smooth="yes"/>
        <point x="50.000" y="0.000" type="line"/>
        <point x="22.500" y="0.000"/>

        <point x="0.000" y="22.500"/>
        <point x="0.000" y="50.000" type="curve" smooth="yes"/>
        <point x="0.000" y="50.000" type="line"/>
    </contour>
  </outline>
</glyph>
<glyph name="_36.clip" format="2">
  <advance width="1"/>
  
  <outline>
    <contour>
        <point x="0.000" y="279.000"/>

        <point x="81.000" y="360.000"/>
        <point x="180.000" y="360.000" type="curve" smooth="yes"/>
        <point x="-179.000" y="360.000" type="line"/>
        <point x="-80.000" y="360.000"/>

        <point x="1.000" y="279.000"/>
        <point x="1.000" y="180.000" type="curve" smooth="yes"/>
        <point x="1.000" y="180.000" type="line"/>
        <point x="1.000" y="81.000"/>

        <point x="-80.000" y="0.000"/>
        <point x="-179.000" y="0.000" type="curve" smooth="yes"/>
        <point x="180.000" y="0.000" type="line"/>
        <point x="81.000" y="0.000"/>

        <point x="0.000" y="81.000"/>
        <point x="0.000" y="180.000" type="curve" smooth="yes"/>
        <point x="0.000" y="180.000" type="line"/>
    </contour>
  </outline>
</glyph>
<glyph name="_47.clip" format="2">
  <advance width="1"/>
  
  <outline>
    <contour>
        <point x="0.000" y="364.250"/>

        <point x="105.750" y="470.000"/>
        <point x="235.000" y="470.000" type="curve" smooth="yes"/>
        <point x="-234.000" y="470.000" type="line"/>
        <point x="-104.750" y="470.000"/>

        <point x="1.000" y="364.250"/>
        <point x="1.000" y="235.000" type="curve" smooth="yes"/>
        <point x="1.000" y="235.000" type="line"/>
        <point x="1.000" y="105.750"/>

        <point x="-104.750" y="0.000"/>
        <point x="-234.000" y="0.000" type="curve" smooth="yes"/>
        <point x="235.000" y="0.000" type="line"/>
        <point x="105.750" y="0.000"/>

        <point x="0.000" y="105.750"/>
        <point x="0.000" y="235.000" type="curve" smooth="yes"/>
        <point x="0.000" y="235.000" type="line"/>
    </contour>
  </outline>
</glyph>
<glyph name="_49.clip.center" format="2">
  <advance width="1"/>
  
  <outline>
    <contour>
        <point x="0.000" y="634.750"/>

        <point x="110.250" y="745.000"/>
        <point x="245.000" y="745.000" type="curve" smooth="yes"/>
        <point x="-244.000" y="745.000" type="line"/>
        <point x="-109.250" y="745.000"/>

        <point x="1.000" y="634.750"/>
        <point x="1.000" y="500.000" type="curve" smooth="yes"/>
        <point x="1.000" y="500.000" type="line"/>
        <point x="1.000" y="365.250"/>

        <point x="-109.250" y="255.000"/>
        <point x="-244.000" y="255.000" type="curve" smooth="yes"/>
        <point x="245.000" y="255.000" type="line"/>
        <point x="110.250" y="255.000"/>

        <point x="0.000" y="365.250"/>
        <point x="0.000" y="500.000" type="curve" smooth="yes"/>
        <point x="0.000" y="500.000" type="line"/>
    </contour>
  </outline>
</glyph>
<glyph name="_53.clip" format="2">
  <advance width="1"/>
  
  <outline>
    <contour>
        <point x="0.000" y="410.750"/>

        <point x="119.250" y="530.000"/>
        <point x="265.000" y="530.000" type="curve" smooth="yes"/>
        <point x="-264.000" y="530.000" type="line"/>
        <point x="-118.250" y="530.000"/>

        <point x="1.000" y="410.750"/>
        <point x="1.000" y="265.000" type="curve" smooth="yes"/>
        <point x="1.000" y="265.000" type="line"/>
        <point x="1.000" y="119.250"/>

        <point x="-118.250" y="0.000"/>
        <point x="-264.000" y="0.000" type="curve" smooth="yes"/>
        <point x="265.000" y="0.000" type="line"/>
        <point x="119.250" y="0.000"/>

        <point x="0.000" y="119.250"/>
        <point x="0.000" y="265.000" type="curve" smooth="yes"/>
        <point x="0.000" y="265.000" type="line"/>
    </contour>
  </outline>
</glyph>
<glyph name="_57.clip" format="2">
  <advance width="1"/>
  
  <outline>
    <contour>
        <point x="0.000" y="441.750"/>

        <point x="128.250" y="570.000"/>
        <point x="285.000" y="570.000" type="curve" smooth="yes"/>
        <point x="-284.000" y="570.000" type="line"/>
        <point x="-127.250" y="570.000"/>

        <point x="1.000" y="441.750"/>
        <point x="1.000" y="285.000" type="curve" smooth="yes"/>
        <point x="1.000" y="285.000" type="line"/>
        <point x="1.000" y="128.250"/>

        <point x="-127.250" y="0.000"/>
        <point x="-284.000" y="0.000" type="curve" smooth="yes"/>
        <point x="285.000" y="0.000" type="line"/>
        <point x="128.250" y="0.000"/>

        <point x="0.000" y="128.250"/>
        <point x="0.000" y="285.000" type="curve" smooth="yes"/>
        <point x="0.000" y="285.000" type="line"/>
    </contour>
  </outline>
</glyph>
<glyph name="_59.clip.center" format="2">
  <advance width="1"/>
  
  <outline>
    <contour>
        <point x="0.000" y="662.250"/>

        <point x="132.750" y="795.000"/>
        <point x="295.000" y="795.000" type="curve" smooth="yes"/>
        <point x="-294.000" y="795.000" type="line"/>
        <point x="-131.750" y="795.000"/>

        <point x="1.000" y="662.250"/>
        <point x="1.000" y="500.000" type="curve" smooth="yes"/>
        <point x="1.000" y="500.000" type="line"/>
        <point x="1.000" y="337.750"/>

        <point x="-131.750" y="205.000"/>
        <point x="-294.000" y="205.000" type="curve" smooth="yes"/>
        <point x="295.000" y="205.000" type="line"/>
        <point x="132.750" y="205.000"/>

        <point x="0.000" y="337.750"/>
        <point x="0.000" y="500.000" type="curve" smooth="yes"/>
        <point x="0.000" y="500.000" type="line"/>
    </contour>
  </outline>
</glyph>
<glyph name="_60.clip.center" format="2">
  <advance width="1"/>
  
  <outline>
    <contour>
        <point x="0.000" y="665.000"/>

        <point x="135.000" y="800.000"/>
        <point x="300.000" y="800.000" type="curve" smooth="yes"/>
        <point x="-299.000" y="800.000" type="line"/>
        <point x="-134.000" y="800.000"/>

        <point x="1.000" y="665.000"/>
        <point x="1.000" y="500.000" type="curve" smooth="yes"/>
        <point x="1.000" y="500.000" type="line"/>
        <point x="1.000" y="335.000"/>

        <point x="-134.000" y="200.000"/>
        <point x="-299.000" y="200.000" type="curve" smooth="yes"/>
        <point x="300.000" y="200.000" type="line"/>
        <point x="135.000" y="200.000"/>

        <point x="0.000" y="335.000"/>
        <point x="0.000" y="500.000" type="curve" smooth="yes"/>
        <point x="0.000" y="500.000" type="line"/>
    </contour>
  </outline>
</glyph>
<glyph name="_61.clip" format="2">
  <advance width="1"/>
  
  <outline>
    <contour>
        <point x="0.000" y="472.750"/>

        <point x="137.250" y="610.000"/>
        <point x="305.000" y="610.000" type="curve" smooth="yes"/>
        <point x="-304.000" y="610.000" type="line"/>
        <point x="-136.250" y="610.000"/>

        <point x="1.000" y="472.750"/>
        <point x="1.000" y="305.000" type="curve" smooth="yes"/>
        <point x="1.000" y="305.000" type="line"/>
        <point x="1.000" y="137.250"/>

        <point x="-136.250" y="0.000"/>
        <point x="-304.000" y="0.000" type="curve" smooth="yes"/>
        <point x="305.000" y="0.000" type="line"/>
        <point x="137.250" y="0.000"/>

        <point x="0.000" y="137.250"/>
        <point x="0.000" y="305.000" type="curve" smooth="yes"/>
        <point x="0.000" y="305.000" type="line"/>
    </contour>
  </outline>
</glyph>
<glyph name="_66.clip" format="2">
  <advance width="1"/>
  
  <outline>
    <contour>
        <point x="0.000" y="511.500"/>

        <point x="148.500" y="660.000"/>
        <point x="330.000" y="660.000" type="curve" smooth="yes"/>
        <point x="-329.000" y="660.000" type="line"/>
        <point x="-147.500" y="660.000"/>

        <point x="1.000" y="511.500"/>
        <point x="1.000" y="330.000" type="curve" smooth="yes"/>
        <point x="1.000" y="330.000" type="line"/>
        <point x="1.000" y="148.500"/>

        <point x="-147.500" y="0.000"/>
        <point x="-329.000" y="0.000" type="curve" smooth="yes"/>
        <point x="330.000" y="0.000" type="line"/>
        <point x="148.500" y="0.000"/>

        <point x="0.000" y="148.500"/>
        <point x="0.000" y="330.000" type="curve" smooth="yes"/>
        <point x="0.000" y="330.000" type="line"/>
    </contour>
  </outline>
</glyph>
<glyph name="_69.clip" format="2">
  <advance width="1"/>
  
  <outline>
    <contour>
        <point x="0.000" y="534.750"/>

        <point x="155.250" y="690.000"/>
        <point x="345.000" y="690.000" type="curve" smooth="yes"/>
        <point x="-344.000" y="690.000" type="line"/>
        <point x="-154.250" y="690.000"/>

        <point x="1.000" y="534.750"/>
        <point x="1.000" y="345.000" type="curve" smooth="yes"/>
        <point x="1.000" y="345.000" type="line"/>
        <point x="1.000" y="155.250"/>

        <point x="-154.250" y="0.000"/>
        <point x="-344.000" y="0.000" type="curve" smooth="yes"/>
        <point x="345.000" y="0.000" type="line"/>
        <point x="155.250" y="0.000"/>

        <point x="0.000" y="155.250"/>
        <point x="0.000" y="345.000" type="curve" smooth="yes"/>
        <point x="0.000" y="345.000" type="line"/>
    </contour>
  </outline>
</glyph>
<glyph name="_72.clip" format="2">
  <advance width="1"/>
  
  <outline>
    <contour>
        <point x="0.000" y="558.000"/>

        <point x="162.000" y="720.000"/>
        <point x="360.000" y="720.000" type="curve" smooth="yes"/>
        <point x="-359.000" y="720.000" type="line"/>
        <point x="-161.000" y="720.000"/>

        <point x="1.000" y="558.000"/>
        <point x="1.000" y="360.000" type="curve" smooth="yes"/>
        <point x="1.000" y="360.000" type="line"/>
        <point x="1.000" y="162.000"/>

        <point x="-161.000" y="0.000"/>
        <point x="-359.000" y="0.000" type="curve" smooth="yes"/>
        <point x="360.000" y="0.000" type="line"/>
        <point x="162.000" y="0.000"/>

        <point x="0.000" y="162.000"/>
        <point x="0.000" y="360.000" type="curve" smooth="yes"/>
        <point x="0.000" y="360.000" type="line"/>
    </contour>
  </outline>
</glyph>
<glyph name="_77.clip" format="2">
  <advance width="1"/>
  
  <outline>
    <contour>
        <point x="0.000" y="596.750"/>

        <point x="173.250" y="770.000"/>
        <point x="385.000" y="770.000" type="curve" smooth="yes"/>
        <point x="-384.000" y="770.000" type="line"/>
        <point x="-172.250" y="770.000"/>

        <point x="1.000" y="596.750"/>
        <point x="1.000" y="385.000" type="curve" smooth="yes"/>
        <point x="1.000" y="385.000" type="line"/>
        <point x="1.000" y="173.250"/>

        <point x="-172.250" y="0.000"/>
        <point x="-384.000" y="0.000" type="curve" smooth="yes"/>
        <point x="385.000" y="0.000" type="line"/>
        <point x="173.250" y="0.000"/>

        <point x="0.000" y="173.250"/>
        <point x="0.000" y="385.000" type="curve" smooth="yes"/>
        <point x="0.000" y="385.000" type="line"/>
    </contour>
  </outline>
</glyph>
<glyph name="_78.clip.center" format="2">
  <advance width="1"/>
  
  <outline>
    <contour>
        <point x="0.000" y="714.500"/>

        <point x="175.500" y="890.000"/>
        <point x="390.000" y="890.000" type="curve" smooth="yes"/>
        <point x="-389.000" y="890.000" type="line"/>
        <point x="-174.500" y="890.000"/>

        <point x="1.000" y="714.500"/>
        <point x="1.000" y="500.000" type="curve" smooth="yes"/>
        <point x="1.000" y="500.000" type="line"/>
        <point x="1.000" y="285.500"/>

        <point x="-174.500" y="110.000"/>
        <point x="-389.000" y="110.000" type="curve" smooth="yes"/>
        <point x="390.000" y="110.000" type="line"/>
        <point x="175.500" y="110.000"/>

        <point x="0.000" y="285.500"/>
        <point x="0.000" y="500.000" type="curve" smooth="yes"/>
        <point x="0.000" y="500.000" type="line"/>
    </contour>
  </outline>
</glyph>
<glyph name="_83.clip" format="2">
  <advance width="1"/>
  
  <outline>
    <contour>
        <point x="0.000" y="643.250"/>

        <point x="186.750" y="830.000"/>
        <point x="415.000" y="830.000" type="curve" smooth="yes"/>
        <point x="-414.000" y="830.000" type="line"/>
        <point x="-185.750" y="830.000"/>

        <point x="1.000" y="643.250"/>
        <point x="1.000" y="415.000" type="curve" smooth="yes"/>
        <point x="1.000" y="415.000" type="line"/>
        <point x="1.000" y="186.750"/>

        <point x="-185.750" y="0.000"/>
        <point x="-414.000" y="0.000" type="curve" smooth="yes"/>
        <point x="415.000" y="0.000" type="line"/>
        <point x="186.750" y="0.000"/>

        <point x="0.000" y="186.750"/>
        <point x="0.000" y="415.000" type="curve" smooth="yes"/>
        <point x="0.000" y="415.000" type="line"/>
    </contour>
  </outline>
</glyph>
<glyph name="_87.clip.center" format="2">
  <advance width="1"/>
  
  <outline>
    <contour>
        <point x="0.000" y="739.250"/>

        <point x="195.750" y="935.000"/>
        <point x="435.000" y="935.000" type="curve" smooth="yes"/>
        <point x="-434.000" y="935.000" type="line"/>
        <point x="-194.750" y="935.000"/>

        <point x="1.000" y="739.250"/>
        <point x="1.000" y="500.000" type="curve" smooth="yes"/>
        <point x="1.000" y="500.000" type="line"/>
        <point x="1.000" y="260.750"/>

        <point x="-194.750" y="65.000"/>
        <point x="-434.000" y="65.000" type="curve" smooth="yes"/>
        <point x="435.000" y="65.000" type="line"/>
        <point x="195.750" y="65.000"/>

        <point x="0.000" y="260.750"/>
        <point x="0.000" y="500.000" type="curve" smooth="yes"/>
        <point x="0.000" y="500.000" type="line"/>
    </contour>
  </outline>
</glyph>
<glyph name="_92.clip.center" format="2">
  <advance width="1"/>
  
  <outline>
    <contour>
        <point x="0.000" y="753.000"/>

        <point x="207.000" y="960.000"/>
        <point x="460.000" y="960.000" type="curve" smooth="yes"/>
        <point x="-459.000" y="960.000" type="line"/>
        <point x="-206.000" y="960.000"/>

        <point x="1.000" y="753.000"/>
        <point x="1.000" y="500.000" type="curve" smooth="yes"/>
        <point x="1.000" y="500.000" type="line"/>
        <point x="1.000" y="247.000"/>

        <point x="-206.000" y="40.000"/>
        <point x="-459.000" y="40.000" type="curve" smooth="yes"/>
        <point x="460.000" y="40.000" type="line"/>
        <point x="207.000" y="40.000"/>

        <point x="0.000" y="247.000"/>
        <point x="0.000" y="500.000" type="curve" smooth="yes"/>
        <point x="0.000" y="500.000" type="line"/>
    </contour>
  </outline>
</glyph>
<glyph name="_92.clip" format="2">
  <advance width="1"/>
  
  <outline>
    <contour>
        <point x="0.000" y="713.000"/>

        <point x="207.000" y="920.000"/>
        <point x="460.000" y="920.000" type="curve" smooth="yes"/>
        <point x="-459.000" y="920.000" type="line"/>
        <point x="-206.000" y="920.000"/>

        <point x="1.000" y="713.000"/>
        <point x="1.000" y="460.000" type="curve" smooth="yes"/>
        <point x="1.000" y="460.000" type="line"/>
        <point x="1.000" y="207.000"/>

        <point x="-206.000" y="0.000"/>
        <point x="-459.000" y="0.000" type="curve" smooth="yes"/>
        <point x="460.000" y="0.000" type="line"/>
        <point x="207.000" y="0.000"/>

        <point x="0.000" y="207.000"/>
        <point x="0.000" y="460.000" type="curve" smooth="yes"/>
        <point x="0.000" y="460.000" type="line"/>
    </contour>
  </outline>
</glyph>
<glyph name="_93.clip.center" format="2">
  <advance width="1"/>
  
  <outline>
    <contour>
        <point x="0.000" y="755.750"/>

        <point x="209.250" y="965.000"/>
        <point x="465.000" y="965.000" type="curve" smooth="yes"/>
        <point x="-464.000" y="965.000" type="line"/>
        <point x="-208.250" y="965.000"/>

        <point x="1.000" y="755.750"/>
        <point x="1.000" y="500.000" type="curve" smooth="yes"/>
        <point x="1.000" y="500.000" type="line"/>
        <point x="1.000" y="244.250"/>

        <point x="-208.250" y="35.000"/>
        <point x="-464.000" y="35.000" type="curve" smooth="yes"/>
        <point x="465.000" y="35.000" type="line"/>
        <point x="209.250" y="35.000"/>

        <point x="0.000" y="244.250"/>
        <point x="0.000" y="500.000" type="curve" smooth="yes"/>
        <point x="0.000" y="500.000" type="line"/>
    </contour>
  </outline>
</glyph>
<glyph name="_96.clip.center" format="2">
  <advance width="1"/>
  
  <outline>
    <contour>
        <point x="0.000" y="764.000"/>

        <point x="216.000" y="980.000"/>
        <point x="480.000" y="980.000" type="curve" smooth="yes"/>
        <point x="-479.000" y="980.000" type="line"/>
        <point x="-215.000" y="980.000"/>

        <point x="1.000" y="764.000"/>
        <point x="1.000" y="500.000" type="curve" smooth="yes"/>
        <point x="1.000" y="500.000" type="line"/>
        <point x="1.000" y="236.000"/>

        <point x="-215.000" y="20.000"/>
        <point x="-479.000" y="20.000" type="curve" smooth="yes"/>
        <point x="480.000" y="20.000" type="line"/>
        <point x="216.000" y="20.000"/>

        <point x="0.000" y="236.000"/>
        <point x="0.000" y="500.000" type="curve" smooth="yes"/>
        <point x="0.000" y="500.000" type="line"/>
    </contour>
  </outline>
</glyph>
<glyph name="_98.clip.center" format="2">
  <advance width="1"/>
  
  <outline>
    <contour>
        <point x="0.000" y="769.500"/>

        <point x="220.500" y="990.000"/>
        <point x="490.000" y="990.000" type="curve" smooth="yes"/>
        <point x="-489.000" y="990.000" type="line"/>
        <point x="-219.500" y="990.000"/>

        <point x="1.000" y="769.500"/>
        <point x="1.000" y="500.000" type="curve" smooth="yes"/>
        <point x="1.000" y="500.000" type="line"/>
        <point x="1.000" y="230.500"/>

        <point x="-219.500" y="10.000"/>
        <point x="-489.000" y="10.000" type="curve" smooth="yes"/>
        <point x="490.000" y="10.000" type="line"/>
        <point x="220.500" y="10.000"/>

        <point x="0.000" y="230.500"/>
        <point x="0.000" y="500.000" type="curve" smooth="yes"/>
        <point x="0.000" y="500.000" type="line"/>
    </contour>
  </outline>
</glyph>
<glyph name="cap" format="2">
  <advance width="0"/>
  
  <outline>
    <contour>
        <point x="0.000" y="0.775"/>

        <point x="0.225" y="1.000"/>
        <point x="0.500" y="1.000" type="curve" smooth="yes"/>
        <point x="0.500" y="1.000" type="line"/>
        <point x="0.775" y="1.000"/>

        <point x="1.000" y="0.775"/>
        <point x="1.000" y="0.500" type="curve" smooth="yes"/>
        <point x="1.000" y="0.500" type="line"/>
        <point x="1.000" y="0.225"/>

        <point x="0.775" y="0.000"/>
        <point x="0.500" y="0.000" type="curve" smooth="yes"/>
        <point x="0.500" y="0.000" type="line"/>
        <point x="0.225" y="0.000"/>

        <point x="0.000" y="0.225"/>
        <point x="0.000" y="0.500" type="curve" smooth="yes"/>
        <point x="0.000" y="0.500" type="line"/>
    </contour>
  </outline>
</glyph>
